HIERARCHY
ROOT root
{
	OFFSET	0	13.1	24.9
	CHANNELS 6  Xposition Yposition Zposition Xrotation Yrotation Zrotation
	JOINT spine_1
	{
		OFFSET	0	9.99999	0
		CHANNELS 3  Xrotation Yrotation Zrotation
		JOINT spine_2
		{
			OFFSET	0	112	-10
			CHANNELS 3  Xrotation Yrotation Zrotation
			JOINT spine_3
			{
				OFFSET	0	206.5	19.3
				CHANNELS 3  Xrotation Yrotation Zrotation
				JOINT spine_4
				{
					OFFSET	0	110.4	14.6
					CHANNELS 3  Xrotation Yrotation Zrotation
					JOINT neck_1
					{
						OFFSET	0	71.8	-50.3
						CHANNELS 3  Xrotation Yrotation Zrotation
						JOINT neck_2
						{
							OFFSET	0	86.2	-25.8
							CHANNELS 3  Xrotation Yrotation Zrotation
							JOINT head_ee
							{
								OFFSET	0	179.8	-8.7
								CHANNELS 3  Xrotation Yrotation Zrotation
								End Site
								{
									OFFSET	1	0	0
								}
							}
						}
					}
					JOINT left_clavicle
					{
						OFFSET	-43.2	22.4	-70.8
						CHANNELS 3  Xrotation Yrotation Zrotation
						JOINT left_shoulder
						{
							OFFSET	-93.9	-5.79999	48.7
							CHANNELS 3  Xrotation Yrotation Zrotation
							JOINT left_elbow
							{
								OFFSET	-291.4	-30.8	15.2
								CHANNELS 3  Xrotation Yrotation Zrotation
								JOINT left_lowarm_twist
								{
									OFFSET	-110.7	-3.89999	13.6
									CHANNELS 3  Xrotation Yrotation Zrotation
									JOINT left_hand
									{
										OFFSET	-110.7	-3.89999	13.6
										CHANNELS 3  Xrotation Yrotation Zrotation
										JOINT left_ee
										{
											OFFSET	-80.8	-5.10001	12.1
											CHANNELS 3  Xrotation Yrotation Zrotation
											End Site
											{
												OFFSET	1	0	0
											}
										}
									}
								}
							}
						}
					}
					JOINT right_clavicle
					{
						OFFSET	43.2	22.4	-70.8
						CHANNELS 3  Xrotation Yrotation Zrotation
						JOINT right_shoulder
						{
							OFFSET	93.9	-5.79999	48.7
							CHANNELS 3  Xrotation Yrotation Zrotation
							JOINT right_elbow
							{
								OFFSET	291.4	-30.8	15.2
								CHANNELS 3  Xrotation Yrotation Zrotation
								JOINT right_lowarm_twist
								{
									OFFSET	110.7	-3.89999	13.6
									CHANNELS 3  Xrotation Yrotation Zrotation
									JOINT right_hand
									{
										OFFSET	110.7	-3.89999	13.6
										CHANNELS 3  Xrotation Yrotation Zrotation
										JOINT right_ee
										{
											OFFSET	80.8	-5.10001	12.1
											CHANNELS 3  Xrotation Yrotation Zrotation
											End Site
											{
												OFFSET	1	0	0
											}
										}
									}
								}
							}
						}
					}
				}
			}
		}
	}
	JOINT left_hip
	{
		OFFSET	-82.8	-127.5	0.300001
		CHANNELS 3  Xrotation Yrotation Zrotation
		JOINT left_knee
		{
			OFFSET	-28.2	-396.7	2.2
			CHANNELS 3  Xrotation Yrotation Zrotation
			JOINT left_ankle
			{
				OFFSET	-11.7	-411.3	35.4
				CHANNELS 3  Xrotation Yrotation Zrotation
				JOINT left_toes
				{
					OFFSET	0	-60	-88.6
					CHANNELS 3  Xrotation Yrotation Zrotation
					JOINT left_foot_ee
					{
						OFFSET	-22.5	-16.5	-42.2
						CHANNELS 3  Xrotation Yrotation Zrotation
						End Site
						{
							OFFSET	1	0	0
						}
					}
				}
			}
		}
	}
	JOINT right_hip
	{
		OFFSET	82.8	-127.5	0.300001
		CHANNELS 3  Xrotation Yrotation Zrotation
		JOINT right_knee
		{
			OFFSET	28.2	-396.7	2.2
			CHANNELS 3  Xrotation Yrotation Zrotation
			JOINT right_ankle
			{
				OFFSET	11.7	-411.3	35.4
				CHANNELS 3  Xrotation Yrotation Zrotation
				JOINT right_toes
				{
					OFFSET	0	-60	-88.6
					CHANNELS 3  Xrotation Yrotation Zrotation
					JOINT right_foot_ee
					{
						OFFSET	22.5	-16.5	-42.2
						CHANNELS 3  Xrotation Yrotation Zrotation
						End Site
						{
							OFFSET	1	0	0
						}
					}
				}
			}
		}
	}
}
MOTION
Frames: 15
Frame Time: 0.02
595.61727621 716.032 -1246.71524071 179.103592628 -51.9540711702 178.644450441 -1.51449 0.0160176 -0.627664 -1.51427 0.0559242 -0.625373 -1.51473 0.201908 -0.594519 -1.51521 0.105483 -0.618944 -1.40783 17.2638 10.5512 -0.912467 22.694 13.1624 -0.0 0.0 -0.0 7.45221 -2.40691 14.4969 -7.90322 -20.5032 60.4844 0.497605 -13.8475 0.0604263 14.5913 0.281467 -1.83764 1.92745 -1.35075 12.4448 -0.0 0.0 -0.0 8.87717 -7.1108 -17.0009 -24.056 17.4011 -51.7737 0.87786 23.5023 -0.182617 16.6794 -0.283179 2.10432 2.24014 12.6035 -9.77282 0.0 0.0 0.0 2.72944 32.8945 -4.54837 -17.9034 0.314702 2.71825 9.57166 -22.7348 -1.58341 22.0914 -0.0 -0.0 -0.0 0.0 -0.0 12.697 -0.295317 5.93416 -23.1102 -0.245753 -3.51395 16.5857 -28.6095 2.4652 3.0335 -0.0 -0.0 0.0 0.0 0.0 
597.211558046 717.964 -1241.36195916 177.788531222 -51.3761843581 178.031751915 -1.42266 -0.0134679 -0.585589 -1.42247 0.0238213 -0.585259 -1.42257 0.160338 -0.563372 -1.42301 0.0693533 -0.581624 -3.56543 16.4073 11.5991 -3.11466 21.0232 14.3653 -0.0 0.0 -0.0 7.3446 -0.33801 14.2787 -7.33235 -21.5109 58.9279 0.652398 -17.9098 0.102805 13.7191 0.277875 -1.72629 1.84363 -1.37257 11.8609 -0.0 0.0 -0.0 10.0071 -8.27973 -19.0524 -24.4241 16.9198 -50.1286 0.716602 19.544 -0.12342 15.938 -0.283684 2.00962 2.08016 11.0364 -9.3804 0.0 0.0 0.0 0.774253 31.3394 -4.76087 -16.9537 0.319467 2.57262 9.64582 -23.0724 -1.6008 21.9117 -0.0 -0.0 -0.0 0.0 -0.0 13.9294 0.504052 5.06228 -25.0506 -0.201607 -3.80842 17.5596 -22.6534 2.5128 2.87183 -0.0 -0.0 0.0 0.0 0.0 
608.041141208 718.116 -1231.13157043 177.295639606 -51.1565242596 178.057174791 -1.42519 -0.23895 -0.672778 -1.42496 -0.195656 -0.686618 -1.42233 -0.0292838 -0.713349 -1.42301 -0.141574 -0.699773 -5.62619 15.1882 10.7852 -5.29188 20.0618 13.5865 -0.0 0.0 -0.0 7.10332 1.33541 13.7908 -6.6387 -21.84 57.552 0.872537 -23.3752 0.1805 13.2913 0.275493 -1.6717 1.65358 -2.90442 9.93474 -0.0 0.0 -0.0 10.495 -9.70666 -19.8234 -25.2291 15.9058 -49.3309 0.592515 16.3579 -0.0851612 16.0242 -0.283688 2.02064 1.85438 9.60668 -8.46673 0.0 0.0 0.0 -0.383744 31.0099 -5.343 -15.4686 0.322078 2.34479 9.62865 -23.3035 -1.60194 21.6829 -0.0 -0.0 -0.0 0.0 -0.0 15.793 0.830056 3.32829 -26.4279 -0.164228 -4.01649 18.2975 -19.3661 2.57447 3.35106 -0.0 -0.0 0.0 0.0 0.0 
610.873253333 716.788 -1230.0043002 176.738558765 -50.3558931792 177.971385356 -1.38883 -0.326871 -0.766092 -1.38855 -0.277462 -0.785338 -1.38436 -0.0862317 -0.828432 -1.38525 -0.215981 -0.80442 -7.18298 14.9289 12.7363 -6.7716 18.6231 15.6453 -0.0 0.0 -0.0 7.02531 1.44528 13.637 -6.12428 -22.8687 56.6626 0.970795 -25.6826 0.2213 12.7541 0.271926 -1.60318 1.58595 -2.41544 9.67467 -0.0 0.0 -0.0 10.8641 -9.5701 -20.5425 -25.6152 15.123 -48.7027 0.513725 14.278 -0.0643434 16.0727 -0.283683 2.02682 1.70634 8.6566 -7.86888 0.0 0.0 0.0 -1.28498 29.7654 -5.49615 -14.7701 0.321265 2.23762 9.68872 -23.483 -1.61461 21.6969 -0.0 -0.0 -0.0 0.0 -0.0 18.3181 1.00545 2.96866 -27.1565 -0.142433 -4.12618 18.4569 -17.2425 2.57654 3.33645 -0.0 -0.0 0.0 0.0 0.0 
622.058342176 714.87 -1226.09787984 177.145565996 -49.0657657465 178.870386205 -1.34976 -0.299618 -0.756161 -1.34948 -0.250895 -0.773692 -1.34573 -0.0636665 -0.810859 -1.3466 -0.190923 -0.79063 -7.21055 14.8476 10.0941 -6.96544 20.41 13.0459 -0.0 0.0 -0.0 7.11768 2.17064 13.8109 -5.2118 -23.3572 56.2867 1.16848 -30.0626 0.313788 12.5173 0.270149 -1.57298 1.56901 -3.79824 8.98833 -0.0 0.0 -0.0 10.5313 -10.0527 -19.85 -25.9474 14.4109 -49.3098 0.488679 13.6084 -0.0583083 16.3813 -0.283529 2.06625 1.57713 7.86126 -7.33053 0.0 0.0 0.0 -2.43756 29.6997 -5.01578 -14.7474 0.321216 2.23414 9.72618 -22.5781 -1.60536 21.439 -0.0 -0.0 -0.0 0.0 -0.0 19.323 1.12546 2.18378 -27.1733 -0.141913 -4.12871 18.7832 -15.6242 2.60659 3.85612 -0.0 -0.0 0.0 0.0 0.0 
625.615817175 713.986 -1225.68985639 177.876356255 -49.1075587378 -179.828526395 -1.08253 -0.164828 -1.00826 -1.08197 -0.100339 -1.0167 -1.07972 0.134705 -1.01272 -1.08115 -0.0269179 -1.02129 -8.25144 14.4544 11.5092 -7.95091 18.9579 14.4816 -0.0 0.0 -0.0 7.22404 1.75062 14.0236 -3.81169 -23.9068 55.4144 1.25692 -31.9067 0.359321 12.6069 0.270836 -1.58442 1.32268 -3.62094 7.38703 -0.0 0.0 -0.0 10.4202 -10.2358 -19.6184 -26.566 14.0081 -49.1727 0.452585 12.6368 -0.0501133 16.314 -0.283581 2.05765 1.55988 7.1862 -7.50116 0.0 0.0 0.0 -3.22128 31.1326 -5.64707 -14.1367 0.319397 2.14045 10.0552 -22.4411 -1.65509 21.7305 -0.0 -0.0 -0.0 0.0 -0.0 21.3801 1.14082 1.78407 -26.3054 -0.167756 -3.99801 18.2586 -14.6814 2.53365 3.51491 -0.0 -0.0 0.0 0.0 0.0 
629.524208899 716.725 -1227.94898732 178.197452248 -49.8612865717 -179.23366003 -1.04557 -0.27757 -1.16908 -1.04483 -0.202621 -1.18437 -1.03996 0.0726072 -1.19938 -1.04195 -0.11771 -1.1958 -8.6562 13.9962 10.1444 -8.45076 19.177 13.1142 -0.0 0.0 -0.0 8.2198 2.98187 15.9461 -2.31044 -24.7344 53.3149 1.30936 -32.9667 0.387453 12.8251 0.272434 -1.61224 1.27256 -6.48592 5.84605 -0.0 0.0 -0.0 10.3637 -10.3475 -19.4989 -25.946 12.8944 -49.2246 0.4618 12.8856 -0.0521488 16.4239 -0.283491 2.07168 1.48303 6.62317 -7.21742 0.0 0.0 0.0 -3.43188 32.3385 -6.17519 -13.8458 0.31818 2.09583 9.05886 -22.7031 -1.50121 21.5436 -0.0 -0.0 -0.0 0.0 -0.0 22.2687 -0.273393 1.46363 -16.0568 -0.32175 -2.43502 12.6204 -14.4481 1.78935 1.47931 -0.0 -0.0 0.0 0.0 0.0 
638.093227843 718.933 -1230.07383291 178.564461779 -50.2997815872 -178.404571816 -1.02341 -0.138451 -1.07127 -1.02277 -0.0700063 -1.07791 -1.02096 0.177139 -1.06556 -1.02254 0.00664123 -1.08016 -9.77268 13.7927 10.9526 -9.54801 18.54 13.9988 -0.0 0.0 -0.0 8.44985 3.6288 16.3714 -1.38163 -25.2704 51.9786 1.43204 -35.3494 0.456345 12.1607 0.267238 -1.52753 1.12497 -6.00753 5.04782 -0.0 0.0 -0.0 10.5203 -10.6361 -19.7568 -25.1788 12.0989 -49.3098 0.418167 11.7034 -0.0428573 16.7824 -0.283012 2.11747 1.38855 5.93623 -6.86555 0.0 0.0 0.0 -4.45738 29.6601 -5.88155 -13.7015 0.317492 2.07371 8.04507 -23.5172 -1.35009 21.305 -0.0 -0.0 -0.0 0.0 -0.0 22.6545 0.336097 0.104107 -11.8604 -0.303824 -1.79157 9.62292 -13.6604 1.3765 0.839188 -0.0 -0.0 0.0 0.0 0.0 
645.61744088 716.782 -1231.99984454 179.956026318 -50.7528998965 -177.081863449 -1.10708 -0.0698077 -0.992781 -1.10653 -0.00649621 -0.99521 -1.10602 0.221609 -0.970248 -1.10733 0.0656032 -0.993067 -10.0508 13.5798 9.98488 -9.89581 18.8728 13.0618 -0.0 0.0 -0.0 8.79153 4.14078 17.0152 -0.215617 -24.6341 50.7293 1.63446 -38.9928 0.578712 12.463 0.269724 -1.56606 1.04692 -8.37541 3.51483 -0.0 0.0 -0.0 10.3987 -11.1494 -19.4648 -24.8905 11.4393 -49.5561 0.452998 12.648 -0.0502037 17.0182 -0.28254 2.14759 1.41029 5.4879 -7.20207 0.0 0.0 0.0 -4.76403 30.0377 -5.32813 -11.9065 0.304277 1.79863 6.66038 -23.068 -1.1183 20.871 -0.0 -0.0 -0.0 0.0 -0.0 22.7889 -0.204813 -0.788561 -5.99353 -0.199962 -0.897677 7.13025 -12.786 1.02662 0.0929315 -0.0 -0.0 0.0 0.0 0.0 
656.358112716 713.228 -1231.66259461 -178.387574745 -53.5033808179 -175.872963551 -1.24969 -0.00644542 -1.04481 -1.24908 0.0600483 -1.04311 -1.24976 0.299879 -1.00088 -1.25114 0.138054 -1.03568 -9.88602 14.2093 8.79297 -9.81418 20.8359 12.058 -0.0 0.0 -0.0 9.17961 4.47862 17.7558 1.35253 -23.2769 49.384 2.08694 -45.9468 0.884792 12.6634 0.27126 -1.59161 1.01058 -12.1345 1.65293 -0.0 0.0 -0.0 10.3049 -10.9857 -19.3112 -25.0854 10.1238 -50.6333 0.46217 12.8956 -0.0522313 17.3576 -0.281644 2.19093 1.57817 3.94518 -8.98968 0.0 0.0 0.0 -5.77011 31.6371 -4.73633 -9.24596 0.268855 1.39196 8.39873 -20.615 -1.36688 21.4507 -0.0 -0.0 -0.0 0.0 -0.0 24.5836 -2.16259 -2.1409 0.766811 0.0323346 0.113228 2.8923 -13.8834 0.422189 -1.51763 0.0 0.0 0.0 0.0 0.0 
658.885584365 710.624 -1235.1769912 -177.091159126 -56.3227777593 -174.368214526 -1.27357 -0.0202141 -1.04348 -1.27297 0.0462225 -1.04265 -1.27338 0.286734 -1.00352 -1.27476 0.124658 -1.0362 -10.1641 13.7594 9.11025 -10.0731 19.8357 12.2911 -0.0 0.0 -0.0 9.29575 4.47568 17.9838 2.39098 -23.7705 49.0634 2.33769 -49.181 1.06993 13.0403 0.273906 -1.63968 1.00116 -13.2611 1.10074 -0.0 0.0 -0.0 10.3699 -10.9038 -19.4422 -24.6294 9.02942 -51.2958 0.510492 14.1918 -0.0635482 17.5568 -0.280998 2.21636 1.43296 3.49379 -8.18869 0.0 0.0 0.0 -5.45586 30.1968 -5.29361 -7.68112 0.239213 1.15367 4.7636 -22.339 -0.799185 20.2993 -0.0 -0.0 -0.0 0.0 -0.0 26.3606 -1.58713 -2.7465 3.37335 0.153541 0.494753 1.07485 -11.4706 0.157115 -1.91466 0.0 0.0 0.0 0.0 0.0 
685.314958581 695.569 -1234.7220689 -175.871982491 -58.4677949791 -172.988199939 -1.30854 -0.323622 -1.14634 -1.30784 -0.250026 -1.1646 -1.30201 0.0273817 -1.19082 -1.30395 -0.161017 -1.18021 -5.52873 13.288 7.33394 -5.35622 19.0912 9.79264 -0.0 0.0 -0.0 9.30051 2.78584 18.0917 2.515 -22.5816 48.5847 2.79542 -54.1553 1.42932 13.3343 0.275751 -1.6772 1.06707 -16.9429 -0.0673296 -0.0 0.0 -0.0 9.87165 -11.0225 -18.5055 -23.8407 8.58904 -50.6662 0.503676 14.0098 -0.0618878 18.5955 -0.276199 2.34894 1.35898 -0.0159552 -9.12235 0.0 0.0 0.0 -4.3242 31.0579 -6.19193 -12.2313 0.307307 1.84837 17.1009 -20.253 -2.66821 20.3171 -0.0 -0.0 -0.0 0.0 -0.0 27.6662 -1.50893 -4.831 6.27602 0.308832 0.912783 -9.6379 -6.25925 -1.43743 -1.09248 0.0 0.0 0.0 0.0 0.0 
704.924153992 690.263 -1235.56492644 -174.678556531 -59.1717506269 -172.409793392 -1.37363 -0.439833 -1.33522 -1.37271 -0.353986 -1.3605 -1.36323 -0.0267452 -1.40553 -1.3659 -0.248366 -1.38368 -3.25535 13.3714 5.43703 -3.05337 20.1724 7.58684 -0.0 0.0 -0.0 9.84427 2.22372 19.2157 2.27903 -21.8684 49.0358 3.04142 -56.4147 1.63157 13.4872 0.276634 -1.69669 1.03491 -18.548 -0.988736 -0.0 0.0 -0.0 9.24265 -10.0508 -17.4465 -23.5139 7.62073 -50.902 0.520902 14.4691 -0.0661249 19.7472 -0.268069 2.49582 1.23023 -3.09699 -9.48352 0.0 0.0 0.0 -5.59509 30.7925 -4.79292 -12.523 0.309787 1.89305 19.9621 -20.7988 -3.08369 18.944 -0.0 -0.0 -0.0 0.0 -0.0 28.9205 -1.34321 -4.45657 3.19227 0.14456 0.468425 -6.47975 -2.62091 -0.966164 1.72778 -0.0 -0.0 0.0 0.0 0.0 
723.041885306 684.33 -1232.29497368 -174.099835349 -59.1779653438 -171.935683395 -1.41618 -0.513854 -1.41599 -1.41516 -0.422719 -1.44581 -1.40323 -0.0726437 -1.50458 -1.40626 -0.309326 -1.47424 -0.764341 12.9714 3.7277 -0.498445 20.2728 5.42687 -0.0 0.0 -0.0 10.3134 1.66917 20.205 2.53131 -21.216 49.3155 3.20873 -57.8122 1.77208 13.5884 0.27719 -1.70961 1.00496 -19.6513 -1.67422 -0.0 0.0 -0.0 8.74308 -9.84704 -16.5454 -23.4356 7.3941 -50.8995 0.528026 14.6585 -0.0679162 20.5736 -0.260418 2.60109 1.09032 -5.4491 -9.46946 0.0 0.0 0.0 -6.61613 31.0236 -4.56418 -13.2796 0.315161 2.00902 25.1955 -20.4884 -3.7654 18.7353 -0.0 -0.0 -0.0 0.0 -0.0 30.4491 -0.767735 -3.48874 0.756153 0.031875 0.111657 -8.7466 1.5155 -1.32253 2.81018 -0.0 -0.0 0.0 0.0 0.0 
754.380277863 679.982 -1211.83245788 -171.081561092 -59.4125711119 -169.151489339 -1.35458 -0.502102 -1.62009 -1.3532 -0.398008 -1.64875 -1.3402 -0.00298166 -1.69609 -1.34412 -0.270772 -1.67435 0.939803 12.4815 2.96377 1.24343 19.6803 4.35095 -0.0 0.0 -0.0 10.8192 -0.363544 21.3804 2.37953 -20.1128 49.7023 3.40583 -59.33 1.94028 13.6765 0.277656 -1.72085 0.912909 -19.9795 -2.4286 -0.0 0.0 -0.0 8.54353 -9.4751 -16.2079 -22.197 6.93146 -51.2145 0.568506 15.7285 -0.0785258 22.0531 -0.242927 2.78927 0.926039 -8.26943 -9.47111 0.0 0.0 0.0 -7.80789 31.2567 -4.1206 -11.1422 0.296035 1.68165 29.0991 -19.605 -4.20934 18.0503 -0.0 -0.0 -0.0 0.0 -0.0 31.7353 -0.102598 -2.72726 -0.769863 -0.0309336 -0.114094 -13.552 7.41326 -2.11201 3.68992 -0.0 -0.0 0.0 0.0 0.0 
